<svg xmlns="http://www.w3.org/2000/svg" xmlns:xlink="http://www.w3.org/1999/xlink" width="1920" height="1080" viewBox="0 0 1920 1080">
  <defs>
    <style>
      .cls-1, .cls-10, .cls-13, .cls-21, .cls-24 {
        fill: none;
      }

      .cls-2 {
        clip-path: url(#clip-Web_1920_1);
      }

      .cls-3 {
        fill: #a0ffce;
      }

      .cls-10, .cls-12, .cls-13, .cls-15, .cls-17, .cls-20, .cls-23, .cls-24, .cls-25, .cls-26, .cls-27, .cls-3, .cls-4, .cls-5, .cls-7, .cls-8, .cls-9 {
        stroke: #000;
      }

      .cls-3, .cls-4, .cls-5, .cls-7, .cls-8, .cls-9 {
        stroke-width: 5px;
      }

      .cls-26, .cls-4 {
        fill: #546afc;
      }

      .cls-5 {
        fill: #fff;
      }

      .cls-6 {
        clip-path: url(#clip-path);
      }

      .cls-7 {
        fill: #c9c9c9;
      }

      .cls-25, .cls-27, .cls-8 {
        fill: #333;
      }

      .cls-9 {
        fill: #636363;
      }

      .cls-10, .cls-12 {
        stroke-width: 4px;
      }

      .cls-11 {
        clip-path: url(#clip-path-3);
      }

      .cls-12 {
        fill: #f2f2f2;
        stroke-linecap: round;
      }

      .cls-12, .cls-17 {
        stroke-linejoin: round;
      }

      .cls-13, .cls-17, .cls-20, .cls-25 {
        stroke-width: 3px;
      }

      .cls-14 {
        clip-path: url(#clip-path-5);
      }

      .cls-16 {
        clip-path: url(#clip-path-6);
      }

      .cls-17, .cls-20, .cls-23 {
        fill: #fc6ca3;
      }

      .cls-18 {
        clip-path: url(#clip-path-13);
      }

      .cls-19 {
        clip-path: url(#clip-path-14);
      }

      .cls-21 {
        stroke: #707070;
      }

      .cls-21, .cls-23, .cls-24, .cls-27 {
        stroke-width: 2px;
      }

      .cls-22 {
        clip-path: url(#clip-path-15);
      }

      .cls-28 {
        stroke: none;
      }

      .cls-29 {
        fill: rgba(255,255,255,0);
      }
    </style>
    <clipPath id="clip-path">
      <rect class="cls-1" width="425" height="425"/>
    </clipPath>
    <clipPath id="clip-path-3">
      <rect class="cls-1" width="259" height="259"/>
    </clipPath>
    <clipPath id="clip-path-5">
      <rect class="cls-1" width="956" height="97"/>
    </clipPath>
    <clipPath id="clip-path-6">
      <rect class="cls-1" width="86" height="68"/>
    </clipPath>
    <clipPath id="clip-path-13">
      <rect class="cls-1" width="119" height="101.5"/>
    </clipPath>
    <clipPath id="clip-path-14">
      <rect class="cls-1" width="89" height="89"/>
    </clipPath>
    <clipPath id="clip-path-15">
      <rect class="cls-1" width="44.838" height="44.838"/>
    </clipPath>
    <clipPath id="clip-Web_1920_1">
      <rect width="1920" height="1080"/>
    </clipPath>
  </defs>
  <g id="Web_1920_1" data-name="Web 1920 – 1" class="cls-2">
    <rect class="cls-29" width="1920" height="1080"/>
    <g id="Rectangle_2" data-name="Rectangle 2" class="cls-3" transform="translate(87 202)">
      <rect class="cls-28" width="1756" height="856"/>
      <rect class="cls-1" x="2.5" y="2.5" width="1751" height="851"/>
    </g>
    <g id="Rectangle_3" data-name="Rectangle 3" class="cls-4" transform="translate(562 461)">
      <rect class="cls-28" width="792" height="600" rx="6"/>
      <rect class="cls-1" x="2.5" y="2.5" width="787" height="595" rx="3.5"/>
    </g>
    <g id="Screen" class="cls-5" transform="translate(610 521)">
      <rect class="cls-28" width="700" height="400"/>
      <rect class="cls-1" x="2.5" y="2.5" width="695" height="395"/>
    </g>
    <g id="Speaker_Left_Big" data-name="Speaker Left Big" class="cls-6" transform="translate(122 591)">
      <g id="outer_border" data-name="outer border" class="cls-7">
        <circle class="cls-28" cx="212.5" cy="212.5" r="212.5"/>
        <circle class="cls-1" cx="212.5" cy="212.5" r="210"/>
      </g>
      <g id="speaker_black" data-name="speaker black" class="cls-8" transform="translate(21 21)">
        <circle class="cls-28" cx="192" cy="192" r="192"/>
        <circle class="cls-1" cx="192" cy="192" r="189.5"/>
      </g>
      <g id="inner_speaker" data-name="inner speaker" class="cls-9" transform="translate(141 141)">
        <circle class="cls-28" cx="72" cy="72" r="72"/>
        <circle class="cls-1" cx="72" cy="72" r="69.5"/>
      </g>
    </g>
    <g id="Speaker_Right_Big" data-name="Speaker Right Big" class="cls-6" transform="translate(1373 591)">
      <g id="outer_border-2" data-name="outer border" class="cls-7">
        <circle class="cls-28" cx="212.5" cy="212.5" r="212.5"/>
        <circle class="cls-1" cx="212.5" cy="212.5" r="210"/>
      </g>
      <g id="speaker_black-2" data-name="speaker black" class="cls-8" transform="translate(21 21)">
        <circle class="cls-28" cx="192" cy="192" r="192"/>
        <circle class="cls-1" cx="192" cy="192" r="189.5"/>
      </g>
      <g id="inner_speaker-2" data-name="inner speaker" class="cls-9" transform="translate(141 141)">
        <circle class="cls-28" cx="72" cy="72" r="72"/>
        <circle class="cls-1" cx="72" cy="72" r="69.5"/>
      </g>
    </g>
    <line id="Line_1" data-name="Line 1" class="cls-10" x1="1751" y2="1" transform="translate(87.5 462.5)"/>
    <g id="Speaker_Small_Left" data-name="Speaker Small Left" class="cls-11" transform="translate(88 205)">
      <g id="Small_Speaker_Background" data-name="Small Speaker Background" class="cls-4">
        <rect class="cls-28" width="259" height="259"/>
        <rect class="cls-1" x="2.5" y="2.5" width="254" height="254"/>
      </g>
      <g id="outer_border-3" data-name="outer border" class="cls-7" transform="translate(31 31)">
        <circle class="cls-28" cx="98.583" cy="98.583" r="98.583"/>
        <circle class="cls-1" cx="98.583" cy="98.583" r="96.083"/>
      </g>
      <g id="speaker_black-3" data-name="speaker black" class="cls-8" transform="translate(46 46)">
        <circle class="cls-28" cx="83.583" cy="83.583" r="83.583"/>
        <circle class="cls-1" cx="83.583" cy="83.583" r="81.083"/>
      </g>
      <g id="inner_speaker-3" data-name="inner speaker" class="cls-9" transform="translate(93.677 93.677)">
        <circle class="cls-28" cx="36" cy="36" r="36"/>
        <circle class="cls-1" cx="36" cy="36" r="33.5"/>
      </g>
    </g>
    <g id="Speaker_Small_Right" data-name="Speaker Small Right" class="cls-11" transform="translate(1580 205)">
      <g id="Small_Speaker_Background-2" data-name="Small Speaker Background" class="cls-4">
        <rect class="cls-28" width="259" height="259"/>
        <rect class="cls-1" x="2.5" y="2.5" width="254" height="254"/>
      </g>
      <g id="outer_border-4" data-name="outer border" class="cls-7" transform="translate(31 31)">
        <circle class="cls-28" cx="98.583" cy="98.583" r="98.583"/>
        <circle class="cls-1" cx="98.583" cy="98.583" r="96.083"/>
      </g>
      <g id="speaker_black-4" data-name="speaker black" class="cls-8" transform="translate(46 46)">
        <circle class="cls-28" cx="83.583" cy="83.583" r="83.583"/>
        <circle class="cls-1" cx="83.583" cy="83.583" r="81.083"/>
      </g>
      <g id="inner_speaker-4" data-name="inner speaker" class="cls-9" transform="translate(93.677 93.677)">
        <circle class="cls-28" cx="36" cy="36" r="36"/>
        <circle class="cls-1" cx="36" cy="36" r="33.5"/>
      </g>
    </g>
    <g id="Handle_bar" data-name="Handle bar" class="cls-4" transform="translate(337 24)">
      <rect class="cls-28" width="1246" height="58"/>
      <rect class="cls-1" x="2.5" y="2.5" width="1241" height="53"/>
    </g>
    <path id="Left_Joint" data-name="Left Joint" class="cls-7" d="M223.5,36.5V207.422h31.23V67.716h85.362V36.5Z" transform="translate(-1)"/>
    <path id="Right_Joint" data-name="Right Joint" class="cls-7" d="M340.093,36.5V207.422h-31.23V67.716H223.5V36.5Z" transform="translate(1357)"/>
    <g id="Radio_View_" data-name="Radio View " class="cls-12" transform="translate(390 238)">
      <rect class="cls-28" width="149" height="97"/>
      <rect class="cls-1" x="2" y="2" width="145" height="93"/>
    </g>
    <line id="Line_3" data-name="Line 3" class="cls-13" y2="21" transform="translate(652.5 266.5)"/>
    <g id="Radio_View_Bar" data-name="Radio View Bar" class="cls-14" transform="translate(584 238)">
      <g id="Radio_View" data-name="Radio View" class="cls-12">
        <rect class="cls-28" width="956" height="97"/>
        <rect class="cls-1" x="2" y="2" width="952" height="93"/>
      </g>
      <line id="Line_2" data-name="Line 2" class="cls-13" x2="875" transform="translate(35.5 48.5)"/>
      <line id="Line_4" data-name="Line 4" class="cls-13" y2="21" transform="translate(149.5 28.5)"/>
      <line id="Line_5" data-name="Line 5" class="cls-13" y2="21" transform="translate(230.5 28.5)"/>
      <line id="Line_6" data-name="Line 6" class="cls-13" y2="21" transform="translate(311.5 28.5)"/>
      <line id="Line_7" data-name="Line 7" class="cls-13" y2="20" transform="translate(392.5 28.5)"/>
      <line id="Line_8" data-name="Line 8" class="cls-13" y2="21" transform="translate(465.5 28.5)"/>
      <line id="Line_10" data-name="Line 10" class="cls-13" y2="20" transform="translate(627.5 28.5)"/>
      <line id="Line_11" data-name="Line 11" class="cls-13" y2="21" transform="translate(708.5 28.5)"/>
      <line id="Line_12" data-name="Line 12" class="cls-13" y2="20" transform="translate(789.5 28.5)"/>
      <line id="Line_13" data-name="Line 13" class="cls-13" y2="21" transform="translate(870.5 28.5)"/>
      <path id="Path_1" data-name="Path 1" class="cls-15" d="M1137.933,257.913l-6.766,71.672h15.552Z" transform="translate(-591.121 -234.184)"/>
    </g>
    <path id="Path_2" data-name="Path 2" class="cls-13" d="M408.883,268.129s47.282-60.856,91.709,0" transform="translate(7.457 13.371)"/>
    <circle id="Ellipse_3" data-name="Ellipse 3" cx="8" cy="8" r="8" transform="translate(463 292)"/>
    <path id="Path_3" data-name="Path 3" d="M462.674,304.361,455.82,267.65l20.09,30.957Z" transform="translate(1 -3)"/>
    <g id="Casset_Buttons" data-name="Casset Buttons">
      <g id="Cassette_Button" data-name="Cassette Button" class="cls-16" transform="translate(917 962)">
        <g id="Bottom_button" data-name="Bottom button" class="cls-17">
          <rect class="cls-28" width="86" height="68" rx="10"/>
          <rect class="cls-1" x="1.5" y="1.5" width="83" height="65" rx="8.5"/>
        </g>
        <line id="Line_14" data-name="Line 14" class="cls-13" x2="52" transform="translate(17.5 47.5)"/>
      </g>
      <g id="Cassette_Button-2" data-name="Cassette Button" class="cls-16" transform="translate(1002 962)">
        <g id="Bottom_button-2" data-name="Bottom button" class="cls-17">
          <rect class="cls-28" width="86" height="68" rx="10"/>
          <rect class="cls-1" x="1.5" y="1.5" width="83" height="65" rx="8.5"/>
        </g>
        <line id="Line_14-2" data-name="Line 14" class="cls-13" x2="52" transform="translate(17.5 47.5)"/>
      </g>
      <g id="Cassette_Button-3" data-name="Cassette Button" class="cls-16" transform="translate(1088 962)">
        <g id="Bottom_button-3" data-name="Bottom button" class="cls-17">
          <rect class="cls-28" width="86" height="68" rx="10"/>
          <rect class="cls-1" x="1.5" y="1.5" width="83" height="65" rx="8.5"/>
        </g>
        <line id="Line_14-3" data-name="Line 14" class="cls-13" x2="52" transform="translate(17.5 47.5)"/>
      </g>
      <g id="Cassette_Button-4" data-name="Cassette Button" class="cls-16" transform="translate(831 962)">
        <g id="Bottom_button-4" data-name="Bottom button" class="cls-17">
          <rect class="cls-28" width="86" height="68" rx="10"/>
          <rect class="cls-1" x="1.5" y="1.5" width="83" height="65" rx="8.5"/>
        </g>
        <line id="Line_14-4" data-name="Line 14" class="cls-13" x2="52" transform="translate(17.5 47.5)"/>
      </g>
      <g id="Cassette_Button-5" data-name="Cassette Button" class="cls-16" transform="translate(659 962)">
        <g id="Bottom_button-5" data-name="Bottom button" class="cls-17">
          <rect class="cls-28" width="86" height="68" rx="10"/>
          <rect class="cls-1" x="1.5" y="1.5" width="83" height="65" rx="8.5"/>
        </g>
        <line id="Line_14-5" data-name="Line 14" class="cls-13" x2="52" transform="translate(17.5 47.5)"/>
      </g>
      <g id="Cassette_Button-6" data-name="Cassette Button" class="cls-16" transform="translate(745 962)">
        <g id="Bottom_button-6" data-name="Bottom button" class="cls-17">
          <rect class="cls-28" width="86" height="68" rx="10"/>
          <rect class="cls-1" x="1.5" y="1.5" width="83" height="65" rx="8.5"/>
        </g>
        <line id="Line_14-6" data-name="Line 14" class="cls-13" x2="52" transform="translate(17.5 47.5)"/>
      </g>
      <g id="Cassette_Button-7" data-name="Cassette Button" class="cls-16" transform="translate(1174 962)">
        <g id="Bottom_button-7" data-name="Bottom button" class="cls-17">
          <rect class="cls-28" width="86" height="68" rx="10"/>
          <rect class="cls-1" x="1.5" y="1.5" width="83" height="65" rx="8.5"/>
        </g>
        <line id="Line_14-7" data-name="Line 14" class="cls-13" x2="52" transform="translate(17.5 47.5)"/>
      </g>
    </g>
    <g id="Component_8_1" data-name="Component 8 – 1" class="cls-18" transform="translate(390.5 347.5)">
      <g id="Cassette_Dial" data-name="Cassette Dial" class="cls-19" transform="translate(15.5 12.5)">
        <g id="Ellipse_2" data-name="Ellipse 2" class="cls-20">
          <circle class="cls-28" cx="44.5" cy="44.5" r="44.5"/>
          <circle class="cls-1" cx="44.5" cy="44.5" r="43"/>
        </g>
        <line id="Line_15" data-name="Line 15" class="cls-13" x1="15" y1="18" transform="translate(17.5 10.5)"/>
      </g>
      <line id="Line_17" data-name="Line 17" class="cls-21" y2="9" transform="translate(60)"/>
      <line id="Line_18" data-name="Line 18" class="cls-21" x1="9" transform="translate(110 57)"/>
      <line id="Line_19" data-name="Line 19" class="cls-21" x1="12" transform="translate(0 57)"/>
      <line id="Line_21" data-name="Line 21" class="cls-21" x2="9" y2="8" transform="translate(12 14)"/>
      <line id="Line_22" data-name="Line 22" class="cls-21" y1="3" x2="8" transform="translate(107 37)"/>
      <line id="Line_23" data-name="Line 23" class="cls-21" y1="7" x2="4" transform="translate(81 6)"/>
      <line id="Line_24" data-name="Line 24" class="cls-21" x1="4" y1="7" transform="translate(33 6)"/>
      <line id="Line_20" data-name="Line 20" class="cls-21" y1="6" x2="7" transform="translate(100 18)"/>
      <line id="Line_25" data-name="Line 25" class="cls-21" x1="10" y1="3" transform="translate(4 37)"/>
    </g>
    <g id="Cassette_Dial_Small" data-name="Cassette Dial Small" class="cls-22" transform="translate(1398.341 376.753) rotate(79)">
      <g id="Ellipse_2-2" data-name="Ellipse 2" class="cls-23">
        <circle class="cls-28" cx="22.419" cy="22.419" r="22.419"/>
        <circle class="cls-1" cx="22.419" cy="22.419" r="21.419"/>
      </g>
      <line id="Line_15-2" data-name="Line 15" class="cls-24" x1="5.317" y1="4.09" transform="translate(5.918 10.157)"/>
    </g>
    <g id="Cassette_Dial_Small-2" data-name="Cassette Dial Small" class="cls-22" transform="matrix(0.974, 0.225, -0.225, 0.974, 1440.81, 376.15)">
      <g id="Ellipse_2-3" data-name="Ellipse 2" class="cls-23">
        <circle class="cls-28" cx="22.419" cy="22.419" r="22.419"/>
        <circle class="cls-1" cx="22.419" cy="22.419" r="21.419"/>
      </g>
      <path id="Path_4" data-name="Path 4" class="cls-24" d="M5.855,4.219,0,0" transform="translate(5.918 10.157)"/>
    </g>
    <g id="Cassette_Dial_Small-3" data-name="Cassette Dial Small" class="cls-22" transform="translate(1330.862 417.432) rotate(162)">
      <g id="Ellipse_2-4" data-name="Ellipse 2" class="cls-23">
        <circle class="cls-28" cx="22.419" cy="22.419" r="22.419"/>
        <circle class="cls-1" cx="22.419" cy="22.419" r="21.419"/>
      </g>
      <line id="Line_15-3" data-name="Line 15" class="cls-24" x1="5.623" y1="4.036" transform="translate(5.918 10.157)"/>
    </g>
    <g id="Dead_Display" data-name="Dead Display" class="cls-25" transform="translate(584 361)">
      <rect class="cls-28" width="108" height="27" rx="4"/>
      <rect class="cls-1" x="1.5" y="1.5" width="105" height="24" rx="2.5"/>
    </g>
    <g id="Ellipse_4" data-name="Ellipse 4" class="cls-26" transform="translate(713 351)">
      <circle class="cls-28" cx="20" cy="20" r="20"/>
      <circle class="cls-1" cx="20" cy="20" r="19.5"/>
    </g>
    <g id="Ellipse_5" data-name="Ellipse 5" class="cls-26" transform="translate(713 407)">
      <circle class="cls-28" cx="20" cy="20" r="20"/>
      <circle class="cls-1" cx="20" cy="20" r="19.5"/>
    </g>
    <g id="Dead_Display_Small" data-name="Dead Display Small" class="cls-27" transform="translate(1287 353)">
      <rect class="cls-28" width="32" height="12" rx="4"/>
      <rect class="cls-1" x="1" y="1" width="30" height="10" rx="3"/>
    </g>
    <g id="Dead_Display_Small-2" data-name="Dead Display Small" class="cls-27" transform="translate(1365 353)">
      <rect class="cls-28" width="32" height="12" rx="4"/>
      <rect class="cls-1" x="1" y="1" width="30" height="10" rx="3"/>
    </g>
    <g id="Dead_Display_Small-3" data-name="Dead Display Small" class="cls-27" transform="translate(1443 353)">
      <rect class="cls-28" width="32" height="12" rx="4"/>
      <rect class="cls-1" x="1" y="1" width="30" height="10" rx="3"/>
    </g>
  </g>
</svg>
