<svg height="512" viewBox="0 0 512 512" width="512" xmlns="http://www.w3.org/2000/svg"><g><path d="m496 168h-40v-88a40.045 40.045 0 0 0 -40-40h-320a40.045 40.045 0 0 0 -40 40v88h-40a8 8 0 0 0 -8 8v288a8 8 0 0 0 8 8h480a8 8 0 0 0 8-8v-288a8 8 0 0 0 -8-8zm-424-88a24.027 24.027 0 0 1 24-24h320a24.027 24.027 0 0 1 24 24v88h-16v-88a8 8 0 0 0 -8-8h-320a8 8 0 0 0 -8 8v88h-16zm120 104h128v16a8.009 8.009 0 0 1 -8 8h-112a8.009 8.009 0 0 1 -8-8zm-88-16v-80h304v80zm-80 16h32v16a8 8 0 0 0 16 0v-16h8v24a8 8 0 0 0 16 0v-24h8v16a8 8 0 0 0 16 0v-16h56v16a24.027 24.027 0 0 0 24 24h112a24.027 24.027 0 0 0 24-24v-16h152v56h-464zm464 272h-464v-200h464z"/><path d="m112 432a80 80 0 1 0 -80-80 80.091 80.091 0 0 0 80 80zm0-144a64 64 0 1 1 -64 64 64.072 64.072 0 0 1 64-64z"/><path d="m112 400a48 48 0 1 0 -48-48 48.054 48.054 0 0 0 48 48zm0-80a32 32 0 1 1 -32 32 32.036 32.036 0 0 1 32-32z"/><path d="m400 432a80 80 0 1 0 -80-80 80.091 80.091 0 0 0 80 80zm0-144a64 64 0 1 1 -64 64 64.072 64.072 0 0 1 64-64z"/><path d="m400 400a48 48 0 1 0 -48-48 48.054 48.054 0 0 0 48 48zm0-80a32 32 0 1 1 -32 32 32.036 32.036 0 0 1 32-32z"/><path d="m208 392h96a8 8 0 0 0 8-8v-80a8 8 0 0 0 -8-8h-96a8 8 0 0 0 -8 8v80a8 8 0 0 0 8 8zm8-80h80v64h-80z"/><path d="m473 216h-64a8 8 0 0 0 0 16h64a8 8 0 0 0 0-16z"/><path d="m385 216h-8a8 8 0 0 0 0 16h8a8 8 0 0 0 0-16z"/></g></svg>